<?xml version="1.0" encoding="iso-8859-1"?>
<!-- Generator: Adobe Illustrator 15.0.1, SVG Export Plug-In . SVG Version: 6.00 Build 0)  -->
<!DOCTYPE svg PUBLIC "-//W3C//DTD SVG 1.1 Basic//EN" "http://www.w3.org/Graphics/SVG/1.1/DTD/svg11-basic.dtd">
<svg version="1.1" baseProfile="basic" id="Layer_13"
	 xmlns="http://www.w3.org/2000/svg" xmlns:xlink="http://www.w3.org/1999/xlink" x="0px" y="0px" width="60px" height="60px"
	 viewBox="0 0 60 60" xml:space="preserve">
<g>
	<rect x="1.156" y="10.042" fill="none" width="56.69" height="40.677"/>
	<g>
		<linearGradient id="SVGID_1_" gradientUnits="userSpaceOnUse" x1="22.5933" y1="45.1553" x2="22.5933" y2="17.7188">
			<stop  offset="0" style="stop-color:#FFCB00"/>
			<stop  offset="0.1782" style="stop-color:#FDC000"/>
			<stop  offset="1" style="stop-color:#F29100"/>
		</linearGradient>
		<path fill="url(#SVGID_1_)" d="M23.842,36.991c0.667-0.146,1.292-0.406,1.851-0.758l5.717,5.787l1.766-1.768l-5.737-5.736
			c0.359-0.547,0.627-1.16,0.779-1.818l8.093-0.012v-2.5l-8.075,0.004c-0.146-0.668-0.412-1.293-0.771-1.852l0.065-0.072
			l5.646-5.647l-1.768-1.766l-5.717,5.719L25.64,26.55c-0.544-0.336-1.152-0.584-1.798-0.725l0.002-8.107h-2.498l-0.003,8.109
			c-0.694,0.152-1.325,0.432-1.837,0.754l-0.008-0.01l-5.721-5.719l-1.767,1.766l5.704,5.745c-0.373,0.588-0.643,1.248-0.78,1.955
			l-8.059-0.133v2.5h8.099c0.155,0.674,0.43,1.301,0.801,1.859l-5.765,5.707l1.767,1.768l5.756-5.77
			c0.549,0.342,1.16,0.596,1.812,0.738v0.012v8.154h2.498L23.842,36.991z"/>
		<linearGradient id="SVGID_2_" gradientUnits="userSpaceOnUse" x1="22.5952" y1="45.1416" x2="22.5952" y2="17.7051">
			<stop  offset="0" style="stop-color:#FFCB00"/>
			<stop  offset="0.1782" style="stop-color:#FDC000"/>
			<stop  offset="1" style="stop-color:#F29100"/>
		</linearGradient>
		<path fill="url(#SVGID_2_)" d="M28.236,30.176c-0.146-0.668-0.412-1.293-0.771-1.85l0.065-0.072l5.646-5.649l-1.767-1.766
			l-5.718,5.721l-0.051-0.023c-0.544-0.336-1.152-0.584-1.798-0.725l0.002-0.014v-8.094h-2.498v8.121l-0.003-0.012
			c-0.663,0.146-1.282,0.404-1.837,0.756L19.5,26.56l-5.72-5.721l-1.768,1.768l5.671,5.671l0.033,0.074
			c-0.373,0.588-0.643,1.248-0.779,1.953l0.02-0.133H8.878v2.5h8.106h-0.008c0.156,0.674,0.43,1.303,0.801,1.861l-0.091,0.033
			l-5.674,5.674l1.768,1.766l5.718-5.717l0.037-0.053c0.549,0.342,1.16,0.596,1.812,0.738v0.012v8.154h2.498v-8.152l-0.002-0.012
			c0.667-0.145,1.292-0.404,1.851-0.758l0.016,0.086l5.701,5.701l1.767-1.766l-5.645-5.646l-0.094-0.09
			c0.359-0.549,0.627-1.162,0.779-1.818l-0.02-0.014h8.113v-2.5h-8.059"/>
		<linearGradient id="SVGID_3_" gradientUnits="userSpaceOnUse" x1="24.4644" y1="45.1748" x2="24.4644" y2="29.895">
			<stop  offset="0" style="stop-color:#9194A4"/>
			<stop  offset="0.0505" style="stop-color:#8F94A5"/>
			<stop  offset="0.0687" style="stop-color:#8895AB"/>
			<stop  offset="0.0787" style="stop-color:#8095B1"/>
			<stop  offset="0.2385" style="stop-color:#9EACBE"/>
			<stop  offset="0.4128" style="stop-color:#B8BFC9"/>
			<stop  offset="0.5939" style="stop-color:#CACDD1"/>
			<stop  offset="0.7845" style="stop-color:#D4D5D5"/>
			<stop  offset="1" style="stop-color:#D8D8D7"/>
		</linearGradient>
		<path fill="url(#SVGID_3_)" d="M27.91,32.868c-0.606-4.512-12.443-4.012-11.205,2.346c-6.179-1-7.69,9.924-2.092,9.924
			c0,0,18.515,0.078,20.28,0.006C40.057,44.653,38.649,30.448,27.91,32.868L27.91,32.868z"/>
		<linearGradient id="SVGID_4_" gradientUnits="userSpaceOnUse" x1="22.5952" y1="45.1416" x2="22.5952" y2="17.7051">
			<stop  offset="0" style="stop-color:#FFCB00"/>
			<stop  offset="0.1782" style="stop-color:#FDC000"/>
			<stop  offset="1" style="stop-color:#F29100"/>
		</linearGradient>
		<path opacity="0.2" fill="url(#SVGID_4_)" d="M28.236,30.176c-0.146-0.668-0.412-1.293-0.771-1.85l0.065-0.072l5.646-5.649
			l-1.767-1.766l-5.718,5.721l-0.051-0.023c-0.544-0.336-1.152-0.584-1.798-0.725l0.002-0.014v-8.094h-2.498v8.121l-0.003-0.012
			c-0.663,0.146-1.282,0.404-1.837,0.756L19.5,26.56l-5.72-5.721l-1.768,1.768l5.671,5.671l0.033,0.074
			c-0.373,0.588-0.643,1.248-0.779,1.953l0.02-0.133H8.878v2.5h8.106h-0.008c0.156,0.674,0.43,1.303,0.801,1.861l-0.091,0.033
			l-5.674,5.674l1.768,1.766l5.718-5.717l0.037-0.053c0.549,0.342,1.16,0.596,1.812,0.738v0.012v8.154h2.498v-8.152l-0.002-0.012
			c0.667-0.145,1.292-0.404,1.851-0.758l0.016,0.086l5.701,5.701l1.767-1.766l-5.645-5.646l-0.094-0.09
			c0.359-0.549,0.627-1.162,0.779-1.818l-0.02-0.014h8.113v-2.5h-8.059"/>
		<linearGradient id="SVGID_5_" gradientUnits="userSpaceOnUse" x1="37.0195" y1="39.0889" x2="37.0195" y2="23.8086">
			<stop  offset="0" style="stop-color:#9194A4"/>
			<stop  offset="0.0505" style="stop-color:#8F94A5"/>
			<stop  offset="0.0687" style="stop-color:#8895AB"/>
			<stop  offset="0.0787" style="stop-color:#8095B1"/>
			<stop  offset="0.2385" style="stop-color:#9EACBE"/>
			<stop  offset="0.4128" style="stop-color:#B8BFC9"/>
			<stop  offset="0.5939" style="stop-color:#CACDD1"/>
			<stop  offset="0.7845" style="stop-color:#D4D5D5"/>
			<stop  offset="1" style="stop-color:#D8D8D7"/>
		</linearGradient>
		<path fill="url(#SVGID_5_)" d="M40.466,26.783c-0.605-4.514-12.444-4.014-11.206,2.347c-6.177-1.001-7.688,9.922-2.092,9.922
			c0,0,18.517,0.078,20.282,0.006C52.613,38.569,51.207,24.361,40.466,26.783L40.466,26.783z"/>
		<linearGradient id="SVGID_6_" gradientUnits="userSpaceOnUse" x1="38.8076" y1="34.9268" x2="38.8076" y2="19.959">
			<stop  offset="0" style="stop-color:#E95153"/>
			<stop  offset="0.0643" style="stop-color:#EA574D"/>
			<stop  offset="0.6954" style="stop-color:#F38F16"/>
			<stop  offset="1" style="stop-color:#F6A500"/>
		</linearGradient>
		<polygon fill="url(#SVGID_6_)" points="41.966,19.958 45.604,19.958 37.618,27.816 42.567,27.816 35.704,34.927 33.446,34.927 
			38.487,29.915 32.011,29.915 		"/>
		<linearGradient id="SVGID_7_" gradientUnits="userSpaceOnUse" x1="36.2051" y1="45.1641" x2="36.2051" y2="37.499">
			<stop  offset="0" style="stop-color:#B6D5ED"/>
			<stop  offset="0.0778" style="stop-color:#B1D2EB"/>
			<stop  offset="0.1747" style="stop-color:#A1C9E6"/>
			<stop  offset="0.2815" style="stop-color:#88BADE"/>
			<stop  offset="0.3202" style="stop-color:#7DB4DA"/>
			<stop  offset="0.4593" style="stop-color:#69AFD8"/>
			<stop  offset="0.7431" style="stop-color:#34A1D2"/>
			<stop  offset="1" style="stop-color:#0093CD"/>
		</linearGradient>
		<path fill="url(#SVGID_7_)" d="M38.712,37.577c0.082,2.584-0.039,5.117-0.027,5.035l-0.025,0.189
			c-0.238,1.473-1.674,2.438-3.119,2.357l-0.012-0.01c-1.025,0-1.795-0.711-1.855-1.59l0,0c-0.086-1.666,1.297-2.686,2.154-3.496
			l0.07-0.061c1.359-1.225,1.836-1.592,2.814-2.504V37.577z"/>
		<linearGradient id="SVGID_8_" gradientUnits="userSpaceOnUse" x1="42.3535" y1="45.1641" x2="42.3535" y2="37.499">
			<stop  offset="0" style="stop-color:#B6D5ED"/>
			<stop  offset="0.0778" style="stop-color:#B1D2EB"/>
			<stop  offset="0.1747" style="stop-color:#A1C9E6"/>
			<stop  offset="0.2815" style="stop-color:#88BADE"/>
			<stop  offset="0.3202" style="stop-color:#7DB4DA"/>
			<stop  offset="0.4593" style="stop-color:#69AFD8"/>
			<stop  offset="0.7431" style="stop-color:#34A1D2"/>
			<stop  offset="1" style="stop-color:#0093CD"/>
		</linearGradient>
		<path fill="url(#SVGID_8_)" d="M44.86,37.577c0.082,2.584-0.039,5.117-0.027,5.035l-0.024,0.189
			c-0.239,1.473-1.675,2.438-3.12,2.357l-0.012-0.01c-1.025,0-1.795-0.711-1.855-1.59l0,0c-0.086-1.666,1.299-2.686,2.154-3.496
			l0.07-0.061c1.359-1.225,1.838-1.592,2.814-2.504V37.577z"/>
	</g>
</g>
</svg>
