<?xml version="1.0" encoding="iso-8859-1"?>
<!-- Generator: Adobe Illustrator 15.0.1, SVG Export Plug-In . SVG Version: 6.00 Build 0)  -->
<!DOCTYPE svg PUBLIC "-//W3C//DTD SVG 1.1 Basic//EN" "http://www.w3.org/Graphics/SVG/1.1/DTD/svg11-basic.dtd">
<svg version="1.1" baseProfile="basic" id="Layer_14"
	 xmlns="http://www.w3.org/2000/svg" xmlns:xlink="http://www.w3.org/1999/xlink" x="0px" y="0px" width="60px" height="60px"
	 viewBox="0 0 60 60" xml:space="preserve">
<g>
	<rect x="1.156" y="10.042" fill="none" width="56.69" height="40.677"/>
	<linearGradient id="SVGID_1_" gradientUnits="userSpaceOnUse" x1="23.4541" y1="38.3389" x2="23.4541" y2="23.0601">
		<stop  offset="0" style="stop-color:#9194A4"/>
		<stop  offset="0.0505" style="stop-color:#8F94A5"/>
		<stop  offset="0.0687" style="stop-color:#8895AB"/>
		<stop  offset="0.0787" style="stop-color:#8095B1"/>
		<stop  offset="0.2385" style="stop-color:#9EACBE"/>
		<stop  offset="0.4128" style="stop-color:#B8BFC9"/>
		<stop  offset="0.5939" style="stop-color:#CACDD1"/>
		<stop  offset="0.7845" style="stop-color:#D4D5D5"/>
		<stop  offset="1" style="stop-color:#D8D8D7"/>
	</linearGradient>
	<path fill="url(#SVGID_1_)" d="M26.901,26.033c-0.606-4.512-12.444-4.012-11.205,2.346c-6.179-1-7.69,9.924-2.093,9.924
		c0,0,18.515,0.078,20.28,0.006C39.047,37.818,37.64,23.613,26.901,26.033L26.901,26.033z"/>
	<linearGradient id="SVGID_2_" gradientUnits="userSpaceOnUse" x1="35.7305" y1="32.1357" x2="35.7305" y2="16.8569">
		<stop  offset="0" style="stop-color:#9194A4"/>
		<stop  offset="0.0505" style="stop-color:#8F94A5"/>
		<stop  offset="0.0687" style="stop-color:#8895AB"/>
		<stop  offset="0.0787" style="stop-color:#8095B1"/>
		<stop  offset="0.2385" style="stop-color:#9EACBE"/>
		<stop  offset="0.4128" style="stop-color:#B8BFC9"/>
		<stop  offset="0.5939" style="stop-color:#CACDD1"/>
		<stop  offset="0.7845" style="stop-color:#D4D5D5"/>
		<stop  offset="1" style="stop-color:#D8D8D7"/>
	</linearGradient>
	<path fill="url(#SVGID_2_)" d="M39.176,19.83c-0.606-4.512-12.445-4.012-11.206,2.346c-6.176-1-7.688,9.924-2.091,9.924
		c0,0,18.516,0.078,20.281,0.006C51.323,31.615,49.916,17.41,39.176,19.83L39.176,19.83z"/>
	<linearGradient id="SVGID_3_" gradientUnits="userSpaceOnUse" x1="41.377" y1="38.5908" x2="41.377" y2="30.9263">
		<stop  offset="0" style="stop-color:#B6D5ED"/>
		<stop  offset="0.0778" style="stop-color:#B1D2EB"/>
		<stop  offset="0.1747" style="stop-color:#A1C9E6"/>
		<stop  offset="0.2815" style="stop-color:#88BADE"/>
		<stop  offset="0.3202" style="stop-color:#7DB4DA"/>
		<stop  offset="0.4593" style="stop-color:#69AFD8"/>
		<stop  offset="0.7431" style="stop-color:#34A1D2"/>
		<stop  offset="1" style="stop-color:#0093CD"/>
	</linearGradient>
	<path fill="url(#SVGID_3_)" d="M43.884,31.004c0.082,2.586-0.039,5.117-0.028,5.035l-0.024,0.189
		c-0.238,1.473-1.674,2.438-3.12,2.357l-0.012-0.01c-1.025,0-1.794-0.711-1.855-1.59l0,0c-0.086-1.666,1.298-2.686,2.154-3.494
		l0.07-0.062c1.359-1.225,1.837-1.592,2.815-2.504V31.004z"/>
	<linearGradient id="SVGID_4_" gradientUnits="userSpaceOnUse" x1="23.6201" y1="44.7373" x2="23.6201" y2="37.0742">
		<stop  offset="0" style="stop-color:#B6D5ED"/>
		<stop  offset="0.0778" style="stop-color:#B1D2EB"/>
		<stop  offset="0.1747" style="stop-color:#A1C9E6"/>
		<stop  offset="0.2815" style="stop-color:#88BADE"/>
		<stop  offset="0.3202" style="stop-color:#7DB4DA"/>
		<stop  offset="0.4593" style="stop-color:#69AFD8"/>
		<stop  offset="0.7431" style="stop-color:#34A1D2"/>
		<stop  offset="1" style="stop-color:#0093CD"/>
	</linearGradient>
	<path fill="url(#SVGID_4_)" d="M26.127,37.152c0.081,2.584-0.039,5.115-0.028,5.033l-0.025,0.191
		c-0.238,1.473-1.673,2.436-3.119,2.355l-0.012-0.01c-1.025,0-1.794-0.711-1.855-1.59l0,0c-0.086-1.664,1.299-2.686,2.155-3.494
		l0.07-0.062c1.358-1.223,1.836-1.592,2.814-2.502V37.152z"/>
</g>
</svg>
