<?xml version="1.0" encoding="iso-8859-1"?>
<!-- Generator: Adobe Illustrator 15.0.1, SVG Export Plug-In . SVG Version: 6.00 Build 0)  -->
<!DOCTYPE svg PUBLIC "-//W3C//DTD SVG 1.1 Basic//EN" "http://www.w3.org/Graphics/SVG/1.1/DTD/svg11-basic.dtd">
<svg version="1.1" baseProfile="basic" id="Layer_2"
	 xmlns="http://www.w3.org/2000/svg" xmlns:xlink="http://www.w3.org/1999/xlink" x="0px" y="0px" width="60px" height="60px"
	 viewBox="0 0 60 60" xml:space="preserve">
<g>
	<rect x="1.156" y="10.042" fill="none" width="56.69" height="40.677"/>
	<g>
		<linearGradient id="SVGID_1_" gradientUnits="userSpaceOnUse" x1="38.168" y1="44.8096" x2="38.168" y2="17.373">
			<stop  offset="0" style="stop-color:#FFCB00"/>
			<stop  offset="0.1782" style="stop-color:#FDC000"/>
			<stop  offset="1" style="stop-color:#F29100"/>
		</linearGradient>
		<path fill="url(#SVGID_1_)" d="M39.415,36.646c0.667-0.146,1.292-0.405,1.852-0.758l5.719,5.787l1.766-1.767l-5.738-5.736
			c0.359-0.548,0.627-1.161,0.779-1.818l8.094-0.013v-2.5l-8.077,0.003c-0.146-0.668-0.411-1.292-0.771-1.851l0.065-0.072
			l5.646-5.648l-1.767-1.766c0,0-5.72,5.72-5.719,5.72l-0.051-0.021c-0.546-0.337-1.152-0.585-1.799-0.726l0.002-8.107h-2.499
			l-0.003,8.11c-0.693,0.151-1.324,0.432-1.836,0.754l-0.008-0.01l-5.72-5.72l-1.768,1.767l5.704,5.745
			c-0.374,0.588-0.643,1.248-0.78,1.954l-8.057-0.132v2.5h8.097c0.155,0.674,0.43,1.301,0.801,1.86l-5.765,5.707l1.768,1.767
			l5.755-5.769c0.549,0.342,1.16,0.595,1.812,0.737l-0.001,0.012v8.154h2.499L39.415,36.646z"/>
		<linearGradient id="SVGID_2_" gradientUnits="userSpaceOnUse" x1="20.1729" y1="44.9141" x2="20.1729" y2="29.6343">
			<stop  offset="0" style="stop-color:#C4D5E5"/>
			<stop  offset="0.0511" style="stop-color:#C3D6E7"/>
			<stop  offset="0.0695" style="stop-color:#C0D9EE"/>
			<stop  offset="0.0787" style="stop-color:#BCDCF5"/>
			<stop  offset="0.1666" style="stop-color:#CDE4F6"/>
			<stop  offset="0.3015" style="stop-color:#E1EDF7"/>
			<stop  offset="0.4575" style="stop-color:#EFF4F8"/>
			<stop  offset="0.6514" style="stop-color:#F7F8F9"/>
			<stop  offset="1" style="stop-color:#F9F9F9"/>
		</linearGradient>
		<path fill="url(#SVGID_2_)" d="M23.621,32.607c-0.606-4.512-12.446-4.012-11.207,2.347c-6.179-1.001-7.69,9.924-2.092,9.924
			c0,0,18.516,0.077,20.281,0.005C35.766,44.393,34.358,30.187,23.621,32.607L23.621,32.607z"/>
		<linearGradient id="SVGID_3_" gradientUnits="userSpaceOnUse" x1="38.168" y1="44.8096" x2="38.168" y2="17.373">
			<stop  offset="0" style="stop-color:#FFCB00"/>
			<stop  offset="0.1782" style="stop-color:#FDC000"/>
			<stop  offset="1" style="stop-color:#F29100"/>
		</linearGradient>
		<path opacity="0.2" fill="url(#SVGID_3_)" d="M39.415,36.646c0.667-0.146,1.292-0.405,1.852-0.758l5.719,5.787l1.766-1.767
			l-5.738-5.736c0.359-0.548,0.627-1.161,0.779-1.818l8.094-0.013v-2.5l-8.077,0.003c-0.146-0.668-0.411-1.292-0.771-1.851
			l0.065-0.072l5.646-5.648l-1.767-1.766c0,0-5.72,5.72-5.719,5.72l-0.051-0.021c-0.546-0.337-1.152-0.585-1.799-0.726l0.002-8.107
			h-2.499l-0.003,8.11c-0.693,0.151-1.324,0.432-1.836,0.754l-0.008-0.01l-5.72-5.72l-1.768,1.767l5.704,5.745
			c-0.374,0.588-0.643,1.248-0.78,1.954l-8.057-0.132v2.5h8.097c0.155,0.674,0.43,1.301,0.801,1.86l-5.765,5.707l1.768,1.767
			l5.755-5.769c0.549,0.342,1.16,0.595,1.812,0.737l-0.001,0.012v8.154h2.499L39.415,36.646z"/>
	</g>
</g>
</svg>
