<?xml version="1.0" encoding="iso-8859-1"?>
<!-- Generator: Adobe Illustrator 15.0.1, SVG Export Plug-In . SVG Version: 6.00 Build 0)  -->
<!DOCTYPE svg PUBLIC "-//W3C//DTD SVG 1.1 Basic//EN" "http://www.w3.org/Graphics/SVG/1.1/DTD/svg11-basic.dtd">
<svg version="1.1" baseProfile="basic" id="Layer_20"
	 xmlns="http://www.w3.org/2000/svg" xmlns:xlink="http://www.w3.org/1999/xlink" x="0px" y="0px" width="60px" height="60px"
	 viewBox="0 0 60 60" xml:space="preserve">
<g>
	<rect x="1.156" y="10.042" fill="none" width="56.69" height="40.677"/>
	<g>
		<linearGradient id="SVGID_1_" gradientUnits="userSpaceOnUse" x1="24.1479" y1="38.626" x2="24.1479" y2="23.3472">
			<stop  offset="0" style="stop-color:#9194A4"/>
			<stop  offset="0.0505" style="stop-color:#8F94A5"/>
			<stop  offset="0.0687" style="stop-color:#8895AB"/>
			<stop  offset="0.0787" style="stop-color:#8095B1"/>
			<stop  offset="0.2385" style="stop-color:#9EACBE"/>
			<stop  offset="0.4128" style="stop-color:#B8BFC9"/>
			<stop  offset="0.5939" style="stop-color:#CACDD1"/>
			<stop  offset="0.7845" style="stop-color:#D4D5D5"/>
			<stop  offset="1" style="stop-color:#D8D8D7"/>
		</linearGradient>
		<path fill="url(#SVGID_1_)" d="M27.595,26.32c-0.606-4.512-12.444-4.012-11.205,2.346c-6.179-1-7.69,9.924-2.092,9.924
			c0,0,18.515,0.078,20.279,0.006C39.741,38.105,38.334,23.9,27.595,26.32L27.595,26.32z"/>
		<linearGradient id="SVGID_2_" gradientUnits="userSpaceOnUse" x1="36.4238" y1="32.4229" x2="36.4238" y2="17.1431">
			<stop  offset="0" style="stop-color:#9194A4"/>
			<stop  offset="0.0505" style="stop-color:#8F94A5"/>
			<stop  offset="0.0687" style="stop-color:#8895AB"/>
			<stop  offset="0.0787" style="stop-color:#8095B1"/>
			<stop  offset="0.2385" style="stop-color:#9EACBE"/>
			<stop  offset="0.4128" style="stop-color:#B8BFC9"/>
			<stop  offset="0.5939" style="stop-color:#CACDD1"/>
			<stop  offset="0.7845" style="stop-color:#D4D5D5"/>
			<stop  offset="1" style="stop-color:#D8D8D7"/>
		</linearGradient>
		<path fill="url(#SVGID_2_)" d="M39.87,20.116c-0.606-4.512-12.444-4.011-11.206,2.347c-6.178-1-7.688,9.924-2.091,9.924
			c0,0,18.516,0.078,20.281,0.005C52.017,31.902,50.61,17.697,39.87,20.116L39.87,20.116z"/>
		<linearGradient id="SVGID_3_" gradientUnits="userSpaceOnUse" x1="18.3843" y1="44.7207" x2="18.3843" y2="37.0566">
			<stop  offset="0" style="stop-color:#B6D5ED"/>
			<stop  offset="0.0778" style="stop-color:#B1D2EB"/>
			<stop  offset="0.1747" style="stop-color:#A1C9E6"/>
			<stop  offset="0.2815" style="stop-color:#88BADE"/>
			<stop  offset="0.3202" style="stop-color:#7DB4DA"/>
			<stop  offset="0.4593" style="stop-color:#69AFD8"/>
			<stop  offset="0.7431" style="stop-color:#34A1D2"/>
			<stop  offset="1" style="stop-color:#0093CD"/>
		</linearGradient>
		<path fill="url(#SVGID_3_)" d="M20.892,37.135c0.082,2.585-0.039,5.116-0.027,5.035l-0.025,0.189
			c-0.238,1.473-1.674,2.438-3.12,2.356l-0.012-0.01c-1.025,0-1.794-0.71-1.855-1.589l0,0c-0.086-1.666,1.298-2.686,2.155-3.495
			l0.07-0.062c1.358-1.224,1.836-1.592,2.814-2.503V37.135z"/>
		<linearGradient id="SVGID_4_" gradientUnits="userSpaceOnUse" x1="24.5322" y1="44.7207" x2="24.5322" y2="37.0566">
			<stop  offset="0" style="stop-color:#B6D5ED"/>
			<stop  offset="0.0778" style="stop-color:#B1D2EB"/>
			<stop  offset="0.1747" style="stop-color:#A1C9E6"/>
			<stop  offset="0.2815" style="stop-color:#88BADE"/>
			<stop  offset="0.3202" style="stop-color:#7DB4DA"/>
			<stop  offset="0.4593" style="stop-color:#69AFD8"/>
			<stop  offset="0.7431" style="stop-color:#34A1D2"/>
			<stop  offset="1" style="stop-color:#0093CD"/>
		</linearGradient>
		<path fill="url(#SVGID_4_)" d="M27.04,37.135c0.082,2.585-0.039,5.116-0.028,5.035l-0.024,0.189
			c-0.238,1.473-1.673,2.438-3.12,2.356l-0.012-0.01c-1.025,0-1.793-0.71-1.855-1.589l0,0c-0.086-1.666,1.299-2.686,2.155-3.495
			l0.07-0.062c1.358-1.224,1.836-1.592,2.814-2.503V37.135z"/>
		<linearGradient id="SVGID_5_" gradientUnits="userSpaceOnUse" x1="30.8052" y1="44.7207" x2="30.8052" y2="37.0566">
			<stop  offset="0" style="stop-color:#B6D5ED"/>
			<stop  offset="0.0778" style="stop-color:#B1D2EB"/>
			<stop  offset="0.1747" style="stop-color:#A1C9E6"/>
			<stop  offset="0.2815" style="stop-color:#88BADE"/>
			<stop  offset="0.3202" style="stop-color:#7DB4DA"/>
			<stop  offset="0.4593" style="stop-color:#69AFD8"/>
			<stop  offset="0.7431" style="stop-color:#34A1D2"/>
			<stop  offset="1" style="stop-color:#0093CD"/>
		</linearGradient>
		<path fill="url(#SVGID_5_)" d="M33.312,37.135c0.081,2.585-0.039,5.116-0.028,5.035l-0.025,0.189
			c-0.238,1.473-1.674,2.438-3.119,2.356l-0.012-0.01c-1.025,0-1.794-0.71-1.855-1.589l0,0c-0.086-1.666,1.298-2.686,2.154-3.495
			l0.07-0.062c1.359-1.224,1.836-1.592,2.815-2.503V37.135z"/>
		<linearGradient id="SVGID_6_" gradientUnits="userSpaceOnUse" x1="12.1157" y1="44.7207" x2="12.1157" y2="37.0566">
			<stop  offset="0" style="stop-color:#B6D5ED"/>
			<stop  offset="0.0778" style="stop-color:#B1D2EB"/>
			<stop  offset="0.1747" style="stop-color:#A1C9E6"/>
			<stop  offset="0.2815" style="stop-color:#88BADE"/>
			<stop  offset="0.3202" style="stop-color:#7DB4DA"/>
			<stop  offset="0.4593" style="stop-color:#69AFD8"/>
			<stop  offset="0.7431" style="stop-color:#34A1D2"/>
			<stop  offset="1" style="stop-color:#0093CD"/>
		</linearGradient>
		<path fill="url(#SVGID_6_)" d="M14.623,37.135c0.082,2.585-0.039,5.116-0.028,5.035l-0.024,0.189
			c-0.238,1.473-1.674,2.438-3.12,2.356l-0.012-0.01c-1.025,0-1.794-0.71-1.855-1.589l0,0c-0.086-1.666,1.298-2.686,2.154-3.495
			l0.07-0.062c1.359-1.224,1.837-1.592,2.815-2.503V37.135z"/>
		<linearGradient id="SVGID_7_" gradientUnits="userSpaceOnUse" x1="29.7544" y1="38.6631" x2="29.7544" y2="31">
			<stop  offset="0" style="stop-color:#B6D5ED"/>
			<stop  offset="0.0778" style="stop-color:#B1D2EB"/>
			<stop  offset="0.1747" style="stop-color:#A1C9E6"/>
			<stop  offset="0.2815" style="stop-color:#88BADE"/>
			<stop  offset="0.3202" style="stop-color:#7DB4DA"/>
			<stop  offset="0.4593" style="stop-color:#69AFD8"/>
			<stop  offset="0.7431" style="stop-color:#34A1D2"/>
			<stop  offset="1" style="stop-color:#0093CD"/>
		</linearGradient>
		<path fill="url(#SVGID_7_)" d="M32.262,31.078c0.082,2.584-0.039,5.116-0.028,5.034l-0.024,0.19
			c-0.238,1.473-1.673,2.437-3.119,2.355l-0.012-0.01c-1.025,0-1.794-0.71-1.855-1.589l0,0c-0.086-1.665,1.298-2.686,2.154-3.495
			l0.07-0.062c1.359-1.223,1.836-1.592,2.814-2.502V31.078z"/>
		<linearGradient id="SVGID_8_" gradientUnits="userSpaceOnUse" x1="35.9023" y1="38.6631" x2="35.9023" y2="31">
			<stop  offset="0" style="stop-color:#B6D5ED"/>
			<stop  offset="0.0778" style="stop-color:#B1D2EB"/>
			<stop  offset="0.1747" style="stop-color:#A1C9E6"/>
			<stop  offset="0.2815" style="stop-color:#88BADE"/>
			<stop  offset="0.3202" style="stop-color:#7DB4DA"/>
			<stop  offset="0.4593" style="stop-color:#69AFD8"/>
			<stop  offset="0.7431" style="stop-color:#34A1D2"/>
			<stop  offset="1" style="stop-color:#0093CD"/>
		</linearGradient>
		<path fill="url(#SVGID_8_)" d="M38.41,31.078c0.082,2.584-0.039,5.116-0.027,5.034l-0.025,0.19
			c-0.238,1.473-1.674,2.437-3.12,2.355l-0.012-0.01c-1.025,0-1.794-0.71-1.855-1.589l0,0c-0.086-1.665,1.299-2.686,2.154-3.495
			l0.071-0.062c1.358-1.223,1.837-1.592,2.814-2.502V31.078z"/>
		<linearGradient id="SVGID_9_" gradientUnits="userSpaceOnUse" x1="42.1777" y1="38.6631" x2="42.1777" y2="31">
			<stop  offset="0" style="stop-color:#B6D5ED"/>
			<stop  offset="0.0778" style="stop-color:#B1D2EB"/>
			<stop  offset="0.1747" style="stop-color:#A1C9E6"/>
			<stop  offset="0.2815" style="stop-color:#88BADE"/>
			<stop  offset="0.3202" style="stop-color:#7DB4DA"/>
			<stop  offset="0.4593" style="stop-color:#69AFD8"/>
			<stop  offset="0.7431" style="stop-color:#34A1D2"/>
			<stop  offset="1" style="stop-color:#0093CD"/>
		</linearGradient>
		<path fill="url(#SVGID_9_)" d="M44.686,31.078c0.081,2.584-0.039,5.116-0.029,5.034l-0.024,0.19
			c-0.238,1.473-1.674,2.437-3.12,2.355l-0.013-0.01c-1.025,0-1.793-0.71-1.854-1.589l0,0c-0.086-1.665,1.298-2.686,2.155-3.495
			l0.07-0.062c1.357-1.223,1.836-1.592,2.815-2.502V31.078z"/>
		<linearGradient id="SVGID_10_" gradientUnits="userSpaceOnUse" x1="23.4878" y1="38.6631" x2="23.4878" y2="31">
			<stop  offset="0" style="stop-color:#B6D5ED"/>
			<stop  offset="0.0778" style="stop-color:#B1D2EB"/>
			<stop  offset="0.1747" style="stop-color:#A1C9E6"/>
			<stop  offset="0.2815" style="stop-color:#88BADE"/>
			<stop  offset="0.3202" style="stop-color:#7DB4DA"/>
			<stop  offset="0.4593" style="stop-color:#69AFD8"/>
			<stop  offset="0.7431" style="stop-color:#34A1D2"/>
			<stop  offset="1" style="stop-color:#0093CD"/>
		</linearGradient>
		<path fill="url(#SVGID_10_)" d="M25.995,31.078c0.082,2.584-0.039,5.116-0.028,5.034l-0.024,0.19
			c-0.238,1.473-1.673,2.437-3.12,2.355l-0.012-0.01c-1.025,0-1.794-0.71-1.854-1.589l0,0c-0.086-1.665,1.298-2.686,2.154-3.495
			l0.07-0.062c1.358-1.223,1.836-1.592,2.814-2.502V31.078z"/>
	</g>
</g>
</svg>
