<?xml version="1.0" encoding="iso-8859-1"?>
<!-- Generator: Adobe Illustrator 15.0.1, SVG Export Plug-In . SVG Version: 6.00 Build 0)  -->
<!DOCTYPE svg PUBLIC "-//W3C//DTD SVG 1.1 Basic//EN" "http://www.w3.org/Graphics/SVG/1.1/DTD/svg11-basic.dtd">
<svg version="1.1" baseProfile="basic" id="Layer_25"
	 xmlns="http://www.w3.org/2000/svg" xmlns:xlink="http://www.w3.org/1999/xlink" x="0px" y="0px" width="60px" height="60px"
	 viewBox="0 0 60 60" xml:space="preserve">
<g>
	<rect x="1.148" y="10.042" fill="none" width="56.706" height="40.677"/>
	<linearGradient id="SVGID_1_" gradientUnits="userSpaceOnUse" x1="24.1558" y1="38.626" x2="24.1558" y2="23.3472">
		<stop  offset="0" style="stop-color:#9194A4"/>
		<stop  offset="0.0505" style="stop-color:#8F94A5"/>
		<stop  offset="0.0687" style="stop-color:#8895AB"/>
		<stop  offset="0.0787" style="stop-color:#8095B1"/>
		<stop  offset="0.2385" style="stop-color:#9EACBE"/>
		<stop  offset="0.4128" style="stop-color:#B8BFC9"/>
		<stop  offset="0.5939" style="stop-color:#CACDD1"/>
		<stop  offset="0.7845" style="stop-color:#D4D5D5"/>
		<stop  offset="1" style="stop-color:#D8D8D7"/>
	</linearGradient>
	<path fill="url(#SVGID_1_)" d="M27.603,26.32c-0.605-4.512-12.443-4.012-11.205,2.346c-6.179-1-7.693,9.924-2.092,9.924
		c0,0,18.514,0.078,20.28,0.006C39.75,38.105,38.342,23.9,27.603,26.32L27.603,26.32z"/>
	<linearGradient id="SVGID_2_" gradientUnits="userSpaceOnUse" x1="36.4316" y1="32.4229" x2="36.4316" y2="17.1431">
		<stop  offset="0" style="stop-color:#9194A4"/>
		<stop  offset="0.0505" style="stop-color:#8F94A5"/>
		<stop  offset="0.0687" style="stop-color:#8895AB"/>
		<stop  offset="0.0787" style="stop-color:#8095B1"/>
		<stop  offset="0.2385" style="stop-color:#9EACBE"/>
		<stop  offset="0.4128" style="stop-color:#B8BFC9"/>
		<stop  offset="0.5939" style="stop-color:#CACDD1"/>
		<stop  offset="0.7845" style="stop-color:#D4D5D5"/>
		<stop  offset="1" style="stop-color:#D8D8D7"/>
	</linearGradient>
	<path fill="url(#SVGID_2_)" d="M39.879,20.116c-0.607-4.512-12.444-4.011-11.206,2.347c-6.177-1-7.689,9.924-2.091,9.924
		c0,0,18.516,0.078,20.28,0.005C52.025,31.902,50.619,17.697,39.879,20.116L39.879,20.116z"/>
	<linearGradient id="SVGID_3_" gradientUnits="userSpaceOnUse" x1="29.7632" y1="38.6631" x2="29.7632" y2="31">
		<stop  offset="0" style="stop-color:#B6D5ED"/>
		<stop  offset="0.0778" style="stop-color:#B1D2EB"/>
		<stop  offset="0.1747" style="stop-color:#A1C9E6"/>
		<stop  offset="0.2815" style="stop-color:#88BADE"/>
		<stop  offset="0.3202" style="stop-color:#7DB4DA"/>
		<stop  offset="0.4593" style="stop-color:#69AFD8"/>
		<stop  offset="0.7431" style="stop-color:#34A1D2"/>
		<stop  offset="1" style="stop-color:#0093CD"/>
	</linearGradient>
	<path fill="url(#SVGID_3_)" d="M32.27,31.078c0.082,2.584-0.039,5.116-0.027,5.034l-0.025,0.19
		c-0.238,1.473-1.673,2.437-3.118,2.355l-0.012-0.01c-1.025,0-1.795-0.71-1.855-1.589l0,0c-0.086-1.665,1.297-2.686,2.154-3.495
		l0.07-0.062c1.359-1.223,1.835-1.592,2.813-2.502V31.078z"/>
	<linearGradient id="SVGID_4_" gradientUnits="userSpaceOnUse" x1="35.9102" y1="38.6631" x2="35.9102" y2="31">
		<stop  offset="0" style="stop-color:#B6D5ED"/>
		<stop  offset="0.0778" style="stop-color:#B1D2EB"/>
		<stop  offset="0.1747" style="stop-color:#A1C9E6"/>
		<stop  offset="0.2815" style="stop-color:#88BADE"/>
		<stop  offset="0.3202" style="stop-color:#7DB4DA"/>
		<stop  offset="0.4593" style="stop-color:#69AFD8"/>
		<stop  offset="0.7431" style="stop-color:#34A1D2"/>
		<stop  offset="1" style="stop-color:#0093CD"/>
	</linearGradient>
	<path fill="url(#SVGID_4_)" d="M38.418,31.078c0.082,2.584-0.039,5.116-0.027,5.034l-0.025,0.19
		c-0.238,1.473-1.674,2.437-3.119,2.355l-0.012-0.01c-1.025,0-1.795-0.71-1.855-1.589l0,0c-0.086-1.665,1.299-2.686,2.154-3.495
		l0.07-0.062c1.359-1.223,1.838-1.592,2.814-2.502V31.078z"/>
	<linearGradient id="SVGID_5_" gradientUnits="userSpaceOnUse" x1="42.1855" y1="38.6631" x2="42.1855" y2="31">
		<stop  offset="0" style="stop-color:#B6D5ED"/>
		<stop  offset="0.0778" style="stop-color:#B1D2EB"/>
		<stop  offset="0.1747" style="stop-color:#A1C9E6"/>
		<stop  offset="0.2815" style="stop-color:#88BADE"/>
		<stop  offset="0.3202" style="stop-color:#7DB4DA"/>
		<stop  offset="0.4593" style="stop-color:#69AFD8"/>
		<stop  offset="0.7431" style="stop-color:#34A1D2"/>
		<stop  offset="1" style="stop-color:#0093CD"/>
	</linearGradient>
	<path fill="url(#SVGID_5_)" d="M44.693,31.078c0.082,2.584-0.039,5.116-0.029,5.034l-0.023,0.19
		c-0.238,1.473-1.674,2.437-3.121,2.355l-0.012-0.01c-1.025,0-1.793-0.71-1.855-1.589l0,0c-0.086-1.665,1.299-2.686,2.156-3.495
		l0.07-0.062c1.357-1.223,1.836-1.592,2.814-2.502V31.078z"/>
	<linearGradient id="SVGID_6_" gradientUnits="userSpaceOnUse" x1="23.4966" y1="38.6631" x2="23.4966" y2="31">
		<stop  offset="0" style="stop-color:#B6D5ED"/>
		<stop  offset="0.0778" style="stop-color:#B1D2EB"/>
		<stop  offset="0.1747" style="stop-color:#A1C9E6"/>
		<stop  offset="0.2815" style="stop-color:#88BADE"/>
		<stop  offset="0.3202" style="stop-color:#7DB4DA"/>
		<stop  offset="0.4593" style="stop-color:#69AFD8"/>
		<stop  offset="0.7431" style="stop-color:#34A1D2"/>
		<stop  offset="1" style="stop-color:#0093CD"/>
	</linearGradient>
	<path fill="url(#SVGID_6_)" d="M26.004,31.078c0.082,2.584-0.039,5.116-0.029,5.034l-0.023,0.19
		c-0.238,1.473-1.673,2.437-3.12,2.355l-0.012-0.01c-1.025,0-1.795-0.71-1.855-1.589l0,0c-0.086-1.665,1.299-2.686,2.154-3.495
		l0.07-0.062c1.359-1.223,1.837-1.592,2.815-2.502V31.078z"/>
	<linearGradient id="SVGID_7_" gradientUnits="userSpaceOnUse" x1="38.4844" y1="28.3208" x2="38.4844" y2="13.353">
		<stop  offset="0" style="stop-color:#E95153"/>
		<stop  offset="0.0643" style="stop-color:#EA574D"/>
		<stop  offset="0.6954" style="stop-color:#F38F16"/>
		<stop  offset="1" style="stop-color:#F6A500"/>
	</linearGradient>
	<polygon fill="url(#SVGID_7_)" points="41.643,13.353 45.281,13.353 37.295,21.21 42.244,21.21 35.379,28.321 33.123,28.321 
		38.164,23.308 31.688,23.308 	"/>
	<linearGradient id="SVGID_8_" gradientUnits="userSpaceOnUse" x1="29.0742" y1="25.0122" x2="29.0742" y2="10.0444">
		<stop  offset="0" style="stop-color:#E95153"/>
		<stop  offset="0.0643" style="stop-color:#EA574D"/>
		<stop  offset="0.6954" style="stop-color:#F38F16"/>
		<stop  offset="1" style="stop-color:#F6A500"/>
	</linearGradient>
	<polygon fill="url(#SVGID_8_)" points="32.23,10.044 35.869,10.044 27.884,17.902 32.832,17.902 25.969,25.012 23.714,25.012 
		28.753,20 22.279,20 	"/>
</g>
</svg>
