<?xml version="1.0" encoding="iso-8859-1"?>
<!-- Generator: Adobe Illustrator 15.0.1, SVG Export Plug-In . SVG Version: 6.00 Build 0)  -->
<!DOCTYPE svg PUBLIC "-//W3C//DTD SVG 1.1 Basic//EN" "http://www.w3.org/Graphics/SVG/1.1/DTD/svg11-basic.dtd">
<svg version="1.1" baseProfile="basic" id="Layer_28"
	 xmlns="http://www.w3.org/2000/svg" xmlns:xlink="http://www.w3.org/1999/xlink" x="0px" y="0px" width="60px" height="60px"
	 viewBox="0 0 60 60" xml:space="preserve">
<g>
	<rect x="7.079" y="17.472" fill="#F5F5F5" width="44.871" height="27.342"/>
	<rect x="1.156" y="10.042" fill="none" width="56.69" height="40.677"/>
	<line fill="none" stroke="#E3E8EC" stroke-width="1.25" x1="51.947" y1="32.966" x2="7.086" y2="32.966"/>
	<line fill="none" stroke="#E3E8EC" stroke-width="1.25" x1="51.947" y1="26.958" x2="7.086" y2="26.958"/>
	<line fill="none" stroke="#E3E8EC" stroke-width="1.25" x1="51.947" y1="19.31" x2="7.086" y2="19.31"/>
	<line fill="none" stroke="#E3E8EC" stroke-width="1.25" x1="51.947" y1="38.001" x2="7.086" y2="38.001"/>
	<line fill="none" stroke="#E3E8EC" stroke-width="1.25" x1="51.947" y1="41.776" x2="7.086" y2="41.776"/>
	<line fill="none" stroke="#E3E8EC" stroke-width="1.25" x1="51.947" y1="44.188" x2="7.086" y2="44.188"/>
	<line fill="none" stroke="#C1E0F2" stroke-width="1.25" x1="13.149" y1="30.438" x2="41.8" y2="30.438"/>
	<line fill="none" stroke="#C1E0F2" stroke-width="1.25" x1="19.538" y1="28.057" x2="28.135" y2="28.057"/>
	<line fill="none" stroke="#C1E0F2" stroke-width="1.25" x1="23.448" y1="25.69" x2="32.045" y2="25.69"/>
	<line fill="none" stroke="#C1E0F2" stroke-width="1.25" x1="27.002" y1="23.09" x2="35.601" y2="23.09"/>
	<line fill="none" stroke="#C1E0F2" stroke-width="1.25" x1="22.055" y1="20.591" x2="30.61" y2="20.591"/>
	<line fill="none" stroke="#C1E0F2" stroke-width="1.25" x1="13.134" y1="40.524" x2="33.162" y2="40.524"/>
	<line fill="none" stroke="#C1E0F2" stroke-width="1.25" x1="22.1" y1="32.968" x2="34.216" y2="32.968"/>
	<line fill="none" stroke="#C1E0F2" stroke-width="1.25" x1="29.286" y1="35.548" x2="46.912" y2="35.548"/>
	<line fill="none" stroke="#C1E0F2" stroke-width="1.25" x1="19.666" y1="38.003" x2="39.349" y2="38.003"/>
</g>
</svg>
