<?xml version="1.0" encoding="iso-8859-1"?>
<!-- Generator: Adobe Illustrator 15.0.1, SVG Export Plug-In . SVG Version: 6.00 Build 0)  -->
<!DOCTYPE svg PUBLIC "-//W3C//DTD SVG 1.1 Basic//EN" "http://www.w3.org/Graphics/SVG/1.1/DTD/svg11-basic.dtd">
<svg version="1.1" baseProfile="basic" id="Layer_3"
	 xmlns="http://www.w3.org/2000/svg" xmlns:xlink="http://www.w3.org/1999/xlink" x="0px" y="0px" width="60px" height="60px"
	 viewBox="0 0 60 60" xml:space="preserve">
<g>
	<rect x="1.156" y="10.041" fill="none" width="56.69" height="40.678"/>
	<g>
		<linearGradient id="SVGID_1_" gradientUnits="userSpaceOnUse" x1="22.5259" y1="44.502" x2="22.5259" y2="17.0649">
			<stop  offset="0" style="stop-color:#FFCB00"/>
			<stop  offset="0.1782" style="stop-color:#FDC000"/>
			<stop  offset="1" style="stop-color:#F29100"/>
		</linearGradient>
		<path fill="url(#SVGID_1_)" d="M23.773,36.338c0.667-0.146,1.292-0.406,1.852-0.76l5.717,5.789l1.767-1.768l-5.737-5.736
			c0.358-0.547,0.626-1.162,0.778-1.818l8.094-0.014v-2.497l-8.077,0.003c-0.146-0.668-0.411-1.292-0.77-1.851l0.064-0.072
			l5.646-5.648l-1.766-1.767c0,0-5.719,5.721-5.717,5.721l-0.052-0.022c-0.545-0.336-1.152-0.584-1.799-0.726l0.003-8.107h-2.499
			l-0.002,8.11c-0.694,0.152-1.325,0.432-1.837,0.754l-0.008-0.009l-5.721-5.721l-1.768,1.768l5.705,5.745
			c-0.373,0.588-0.643,1.247-0.78,1.953l-8.059-0.131v2.497l8.099,0.002c0.155,0.672,0.43,1.301,0.801,1.859L11.942,39.6
			l1.768,1.768l5.756-5.77c0.549,0.342,1.16,0.594,1.813,0.738l-0.002,0.012v8.154h2.499L23.773,36.338z"/>
		<linearGradient id="SVGID_2_" gradientUnits="userSpaceOnUse" x1="24.3999" y1="44.5166" x2="24.3999" y2="29.2373">
			<stop  offset="0" style="stop-color:#C4D5E5"/>
			<stop  offset="0.0511" style="stop-color:#C3D6E7"/>
			<stop  offset="0.0695" style="stop-color:#C0D9EE"/>
			<stop  offset="0.0787" style="stop-color:#BCDCF5"/>
			<stop  offset="0.1666" style="stop-color:#CDE4F6"/>
			<stop  offset="0.3015" style="stop-color:#E1EDF7"/>
			<stop  offset="0.4575" style="stop-color:#EFF4F8"/>
			<stop  offset="0.6514" style="stop-color:#F7F8F9"/>
			<stop  offset="1" style="stop-color:#F9F9F9"/>
		</linearGradient>
		<path fill="url(#SVGID_2_)" d="M27.846,32.211c-0.605-4.513-12.444-4.013-11.204,2.346c-6.18-1-7.691,9.924-2.093,9.924
			c0,0,18.515,0.076,20.28,0.006C39.993,43.994,38.585,29.79,27.846,32.211L27.846,32.211z"/>
		<linearGradient id="SVGID_3_" gradientUnits="userSpaceOnUse" x1="22.5259" y1="44.502" x2="22.5259" y2="17.0649">
			<stop  offset="0" style="stop-color:#FFCB00"/>
			<stop  offset="0.1782" style="stop-color:#FDC000"/>
			<stop  offset="1" style="stop-color:#F29100"/>
		</linearGradient>
		<path opacity="0.2" fill="url(#SVGID_3_)" d="M23.773,36.338c0.667-0.146,1.292-0.406,1.852-0.76l5.717,5.789l1.767-1.768
			l-5.737-5.736c0.358-0.547,0.626-1.162,0.778-1.818l8.094-0.014v-2.497l-8.077,0.003c-0.146-0.668-0.411-1.292-0.77-1.851
			l0.064-0.072l5.646-5.648l-1.766-1.767c0,0-5.719,5.721-5.717,5.721l-0.052-0.022c-0.545-0.336-1.152-0.584-1.799-0.726
			l0.003-8.107h-2.499l-0.002,8.11c-0.694,0.152-1.325,0.432-1.837,0.754l-0.008-0.009l-5.721-5.721l-1.768,1.768l5.705,5.745
			c-0.373,0.588-0.643,1.247-0.78,1.953l-8.059-0.131v2.497l8.099,0.002c0.155,0.672,0.43,1.301,0.801,1.859L11.942,39.6
			l1.768,1.768l5.756-5.77c0.549,0.342,1.16,0.594,1.813,0.738l-0.002,0.012v8.154h2.499L23.773,36.338z"/>
		<linearGradient id="SVGID_4_" gradientUnits="userSpaceOnUse" x1="37.0078" y1="38.3232" x2="37.0078" y2="23.0454">
			<stop  offset="0" style="stop-color:#C4D5E5"/>
			<stop  offset="0.0511" style="stop-color:#C3D6E7"/>
			<stop  offset="0.0695" style="stop-color:#C0D9EE"/>
			<stop  offset="0.0787" style="stop-color:#BCDCF5"/>
			<stop  offset="0.1666" style="stop-color:#CDE4F6"/>
			<stop  offset="0.3015" style="stop-color:#E1EDF7"/>
			<stop  offset="0.4575" style="stop-color:#EFF4F8"/>
			<stop  offset="0.6514" style="stop-color:#F7F8F9"/>
			<stop  offset="1" style="stop-color:#F9F9F9"/>
		</linearGradient>
		<path fill="url(#SVGID_4_)" d="M40.455,26.019c-0.606-4.513-12.445-4.013-11.206,2.346c-6.178-1-7.688,9.923-2.093,9.923
			c0,0,18.518,0.078,20.282,0.006C52.603,37.803,51.194,23.598,40.455,26.019L40.455,26.019z"/>
	</g>
</g>
</svg>
