<?xml version="1.0" encoding="iso-8859-1"?>
<!-- Generator: Adobe Illustrator 15.0.1, SVG Export Plug-In . SVG Version: 6.00 Build 0)  -->
<!DOCTYPE svg PUBLIC "-//W3C//DTD SVG 1.1 Basic//EN" "http://www.w3.org/Graphics/SVG/1.1/DTD/svg11-basic.dtd">
<svg version="1.1" baseProfile="basic" id="Layer_4"
	 xmlns="http://www.w3.org/2000/svg" xmlns:xlink="http://www.w3.org/1999/xlink" x="0px" y="0px" width="60px" height="60px"
	 viewBox="0 0 60 60" xml:space="preserve">
<g>
	<rect x="1.156" y="10.042" fill="none" width="56.69" height="40.677"/>
	<g>
		<linearGradient id="SVGID_1_" gradientUnits="userSpaceOnUse" x1="22.6313" y1="45.4307" x2="22.6313" y2="17.9941">
			<stop  offset="0" style="stop-color:#FFCB00"/>
			<stop  offset="0.1782" style="stop-color:#FDC000"/>
			<stop  offset="1" style="stop-color:#F29100"/>
		</linearGradient>
		<path fill="url(#SVGID_1_)" d="M23.88,37.267c0.667-0.146,1.291-0.406,1.852-0.758l5.717,5.787l1.766-1.768l-5.737-5.736
			c0.359-0.547,0.626-1.16,0.779-1.816l8.093-0.014v-2.5l-8.076,0.004c-0.146-0.668-0.411-1.292-0.771-1.851l0.064-0.072
			l5.646-5.647l-1.767-1.767c0,0-5.719,5.72-5.717,5.72l-0.051-0.021c-0.547-0.337-1.152-0.585-1.799-0.726l0.003-8.107h-2.5
			l-0.002,8.11c-0.693,0.152-1.325,0.432-1.837,0.754l-0.008-0.01l-5.72-5.72l-1.768,1.767l5.704,5.745
			c-0.373,0.588-0.643,1.248-0.779,1.954l-8.06-0.133v2.5h8.099c0.156,0.674,0.43,1.301,0.801,1.859l-5.765,5.707l1.768,1.768
			l5.755-5.77c0.549,0.342,1.161,0.596,1.813,0.738l-0.002,0.012v8.154h2.5L23.88,37.267z"/>
		<linearGradient id="SVGID_2_" gradientUnits="userSpaceOnUse" x1="24.5215" y1="45.4463" x2="24.5215" y2="30.167">
			<stop  offset="0" style="stop-color:#9194A4"/>
			<stop  offset="0.0505" style="stop-color:#8F94A5"/>
			<stop  offset="0.0687" style="stop-color:#8895AB"/>
			<stop  offset="0.0787" style="stop-color:#8095B1"/>
			<stop  offset="0.2385" style="stop-color:#9EACBE"/>
			<stop  offset="0.4128" style="stop-color:#B8BFC9"/>
			<stop  offset="0.5939" style="stop-color:#CACDD1"/>
			<stop  offset="0.7845" style="stop-color:#D4D5D5"/>
			<stop  offset="1" style="stop-color:#D8D8D7"/>
		</linearGradient>
		<path fill="url(#SVGID_2_)" d="M27.969,33.14c-0.607-4.512-12.444-4.011-11.206,2.348c-6.179-1.002-7.69,9.924-2.092,9.924
			c0,0,18.516,0.076,20.279,0.004C40.114,44.925,38.707,30.719,27.969,33.14L27.969,33.14z"/>
		<linearGradient id="SVGID_3_" gradientUnits="userSpaceOnUse" x1="22.6313" y1="45.4307" x2="22.6313" y2="17.9941">
			<stop  offset="0" style="stop-color:#FFCB00"/>
			<stop  offset="0.1782" style="stop-color:#FDC000"/>
			<stop  offset="1" style="stop-color:#F29100"/>
		</linearGradient>
		<path opacity="0.2" fill="url(#SVGID_3_)" d="M23.88,37.267c0.667-0.146,1.291-0.406,1.852-0.758l5.717,5.787l1.766-1.768
			l-5.737-5.736c0.359-0.547,0.626-1.16,0.779-1.816l8.093-0.014v-2.5l-8.076,0.004c-0.146-0.668-0.411-1.292-0.771-1.851
			l0.064-0.072l5.646-5.647l-1.767-1.767c0,0-5.719,5.72-5.717,5.72l-0.051-0.021c-0.547-0.337-1.152-0.585-1.799-0.726l0.003-8.107
			h-2.5l-0.002,8.11c-0.693,0.152-1.325,0.432-1.837,0.754l-0.008-0.01l-5.72-5.72l-1.768,1.767l5.704,5.745
			c-0.373,0.588-0.643,1.248-0.779,1.954l-8.06-0.133v2.5h8.099c0.156,0.674,0.43,1.301,0.801,1.859l-5.765,5.707l1.768,1.768
			l5.755-5.77c0.549,0.342,1.161,0.596,1.813,0.738l-0.002,0.012v8.154h2.5L23.88,37.267z"/>
		<linearGradient id="SVGID_4_" gradientUnits="userSpaceOnUse" x1="37.1299" y1="39.2422" x2="37.1299" y2="23.9634">
			<stop  offset="0" style="stop-color:#9194A4"/>
			<stop  offset="0.0505" style="stop-color:#8F94A5"/>
			<stop  offset="0.0687" style="stop-color:#8895AB"/>
			<stop  offset="0.0787" style="stop-color:#8095B1"/>
			<stop  offset="0.2385" style="stop-color:#9EACBE"/>
			<stop  offset="0.4128" style="stop-color:#B8BFC9"/>
			<stop  offset="0.5939" style="stop-color:#CACDD1"/>
			<stop  offset="0.7845" style="stop-color:#D4D5D5"/>
			<stop  offset="1" style="stop-color:#D8D8D7"/>
		</linearGradient>
		<path fill="url(#SVGID_4_)" d="M40.577,26.936c-0.607-4.512-12.446-4.012-11.206,2.347c-6.178-1-7.689,9.923-2.093,9.923
			c0,0,18.518,0.078,20.282,0.006C52.724,38.722,51.316,24.516,40.577,26.936L40.577,26.936z"/>
	</g>
</g>
</svg>
