<?xml version="1.0" encoding="iso-8859-1"?>
<!-- Generator: Adobe Illustrator 15.0.1, SVG Export Plug-In . SVG Version: 6.00 Build 0)  -->
<!DOCTYPE svg PUBLIC "-//W3C//DTD SVG 1.1 Basic//EN" "http://www.w3.org/Graphics/SVG/1.1/DTD/svg11-basic.dtd">
<svg version="1.1" baseProfile="basic" id="Layer_7"
	 xmlns="http://www.w3.org/2000/svg" xmlns:xlink="http://www.w3.org/1999/xlink" x="0px" y="0px" width="60px" height="60px"
	 viewBox="0 0 60 60" xml:space="preserve">
<g>
	<rect x="1.156" y="10.041" fill="none" width="56.69" height="40.678"/>
	<g>
		<linearGradient id="SVGID_1_" gradientUnits="userSpaceOnUse" x1="22.1177" y1="45.0205" x2="22.1177" y2="17.5835">
			<stop  offset="0" style="stop-color:#FFCB00"/>
			<stop  offset="0.1782" style="stop-color:#FDC000"/>
			<stop  offset="1" style="stop-color:#F29100"/>
		</linearGradient>
		<path fill="url(#SVGID_1_)" d="M23.366,36.855c0.668-0.146,1.292-0.405,1.851-0.758l5.718,5.788l1.765-1.768l-5.737-5.735
			c0.359-0.549,0.625-1.162,0.779-1.818l8.093-0.014v-2.499l-8.076,0.003c-0.146-0.667-0.411-1.292-0.77-1.851l0.064-0.072
			l5.646-5.648l-1.766-1.766c0,0-5.719,5.72-5.717,5.72l-0.051-0.022c-0.546-0.336-1.151-0.585-1.799-0.726l0.003-8.107H20.87
			l-0.003,8.11c-0.693,0.152-1.325,0.432-1.837,0.754l-0.007-0.009l-5.721-5.72l-1.768,1.767l5.705,5.745
			c-0.374,0.588-0.643,1.248-0.781,1.954L8.4,30.052v2.499h8.1c0.154,0.674,0.43,1.301,0.801,1.861l-5.766,5.706l1.768,1.768
			l5.756-5.77c0.548,0.342,1.16,0.595,1.812,0.738l-0.001,0.011v8.155h2.499L23.366,36.855z"/>
		<linearGradient id="SVGID_2_" gradientUnits="userSpaceOnUse" x1="23.9819" y1="45.04" x2="23.9819" y2="29.7617">
			<stop  offset="0" style="stop-color:#C4D5E5"/>
			<stop  offset="0.0511" style="stop-color:#C3D6E7"/>
			<stop  offset="0.0695" style="stop-color:#C0D9EE"/>
			<stop  offset="0.0787" style="stop-color:#BCDCF5"/>
			<stop  offset="0.1666" style="stop-color:#CDE4F6"/>
			<stop  offset="0.3015" style="stop-color:#E1EDF7"/>
			<stop  offset="0.4575" style="stop-color:#EFF4F8"/>
			<stop  offset="0.6514" style="stop-color:#F7F8F9"/>
			<stop  offset="1" style="stop-color:#F9F9F9"/>
		</linearGradient>
		<path fill="url(#SVGID_2_)" d="M27.429,32.734c-0.606-4.512-12.444-4.012-11.205,2.347c-6.179-1.001-7.69,9.924-2.093,9.924
			c0,0,18.516,0.076,20.28,0.006C39.575,44.521,38.167,30.314,27.429,32.734L27.429,32.734z"/>
		<linearGradient id="SVGID_3_" gradientUnits="userSpaceOnUse" x1="22.1177" y1="45.0205" x2="22.1177" y2="17.5835">
			<stop  offset="0" style="stop-color:#FFCB00"/>
			<stop  offset="0.1782" style="stop-color:#FDC000"/>
			<stop  offset="1" style="stop-color:#F29100"/>
		</linearGradient>
		<path opacity="0.2" fill="url(#SVGID_3_)" d="M23.366,36.855c0.668-0.146,1.292-0.405,1.851-0.758l5.718,5.788l1.765-1.768
			l-5.737-5.735c0.359-0.549,0.625-1.162,0.779-1.818l8.093-0.014v-2.499l-8.076,0.003c-0.146-0.667-0.411-1.292-0.77-1.851
			l0.064-0.072l5.646-5.648l-1.766-1.766c0,0-5.719,5.72-5.717,5.72l-0.051-0.022c-0.546-0.336-1.151-0.585-1.799-0.726l0.003-8.107
			H20.87l-0.003,8.11c-0.693,0.152-1.325,0.432-1.837,0.754l-0.007-0.009l-5.721-5.72l-1.768,1.767l5.705,5.745
			c-0.374,0.588-0.643,1.248-0.781,1.954L8.4,30.052v2.499h8.1c0.154,0.674,0.43,1.301,0.801,1.861l-5.766,5.706l1.768,1.768
			l5.756-5.77c0.548,0.342,1.16,0.595,1.812,0.738l-0.001,0.011v8.155h2.499L23.366,36.855z"/>
		<linearGradient id="SVGID_4_" gradientUnits="userSpaceOnUse" x1="36.5137" y1="38.8975" x2="36.5137" y2="23.6182">
			<stop  offset="0" style="stop-color:#C4D5E5"/>
			<stop  offset="0.0511" style="stop-color:#C3D6E7"/>
			<stop  offset="0.0695" style="stop-color:#C0D9EE"/>
			<stop  offset="0.0787" style="stop-color:#BCDCF5"/>
			<stop  offset="0.1666" style="stop-color:#CDE4F6"/>
			<stop  offset="0.3015" style="stop-color:#E1EDF7"/>
			<stop  offset="0.4575" style="stop-color:#EFF4F8"/>
			<stop  offset="0.6514" style="stop-color:#F7F8F9"/>
			<stop  offset="1" style="stop-color:#F9F9F9"/>
		</linearGradient>
		<path fill="url(#SVGID_4_)" d="M39.96,26.591c-0.606-4.512-12.444-4.012-11.206,2.346c-6.178-1-7.688,9.923-2.091,9.923
			c0,0,18.516,0.078,20.282,0.006C52.107,38.376,50.7,24.171,39.96,26.591L39.96,26.591z"/>
		<linearGradient id="SVGID_5_" gradientUnits="userSpaceOnUse" x1="41.8984" y1="45.127" x2="41.8984" y2="37.4619">
			<stop  offset="0" style="stop-color:#B6D5ED"/>
			<stop  offset="0.0778" style="stop-color:#B1D2EB"/>
			<stop  offset="0.1747" style="stop-color:#A1C9E6"/>
			<stop  offset="0.2815" style="stop-color:#88BADE"/>
			<stop  offset="0.3202" style="stop-color:#7DB4DA"/>
			<stop  offset="0.4593" style="stop-color:#69AFD8"/>
			<stop  offset="0.7431" style="stop-color:#34A1D2"/>
			<stop  offset="1" style="stop-color:#0093CD"/>
		</linearGradient>
		<path fill="url(#SVGID_5_)" d="M44.406,37.54c0.08,2.584-0.039,5.115-0.029,5.034l-0.024,0.19
			c-0.238,1.472-1.674,2.436-3.12,2.357l-0.013-0.013c-1.024,0-1.793-0.71-1.854-1.587l0,0c-0.086-1.666,1.298-2.687,2.155-3.496
			l0.07-0.062c1.357-1.225,1.836-1.592,2.815-2.503V37.54z"/>
		<path fill="none" stroke="#FFFFFF" stroke-width="0.7838" stroke-linecap="round" stroke-linejoin="round" d="M30.363,32.509"/>
		<path fill="none" stroke="#FFFFFF" stroke-width="0.7838" stroke-linecap="round" stroke-linejoin="round" d="M37.158,36.433"/>
		<path fill="none" stroke="#FFFFFF" stroke-width="0.7838" stroke-linecap="round" stroke-linejoin="round" d="M30.363,36.432"/>
		<path fill="none" stroke="#FFFFFF" stroke-width="0.7838" stroke-linecap="round" stroke-linejoin="round" d="M37.158,32.509"/>
		<path fill="none" stroke="#FFFFFF" stroke-width="0.7838" stroke-linecap="round" stroke-linejoin="round" d="M31.353,33.057"/>
		<path fill="none" stroke="#FFFFFF" stroke-width="0.7838" stroke-linecap="round" stroke-linejoin="round" d="M30.175,33.74"/>
		<path fill="none" stroke="#FFFFFF" stroke-width="0.7838" stroke-linecap="round" stroke-linejoin="round" d="M31.36,31.701"/>
		<path fill="none" stroke="#FFFFFF" stroke-width="0.7838" stroke-linecap="round" stroke-linejoin="round" d="M31.353,33.057"/>
		<path fill="none" stroke="#FFFFFF" stroke-width="0.7838" stroke-linecap="round" stroke-linejoin="round" d="M36.159,37.195"/>
		<path fill="none" stroke="#FFFFFF" stroke-width="0.7838" stroke-linecap="round" stroke-linejoin="round" d="M36.167,35.839"/>
		<path fill="none" stroke="#FFFFFF" stroke-width="0.7838" stroke-linecap="round" stroke-linejoin="round" d="M31.351,35.838"/>
		<path fill="none" stroke="#FFFFFF" stroke-width="0.7838" stroke-linecap="round" stroke-linejoin="round" d="M31.354,37.198"/>
		<path fill="none" stroke="#FFFFFF" stroke-width="0.7838" stroke-linecap="round" stroke-linejoin="round" d="M30.182,35.152"/>
		<path fill="none" stroke="#FFFFFF" stroke-width="0.7838" stroke-linecap="round" stroke-linejoin="round" d="M31.351,35.838"/>
		<path fill="none" stroke="#FFFFFF" stroke-width="0.7838" stroke-linecap="round" stroke-linejoin="round" d="M36.168,33.059"/>
		<path fill="none" stroke="#FFFFFF" stroke-width="0.7838" stroke-linecap="round" stroke-linejoin="round" d="M36.165,31.697"/>
		<path fill="none" stroke="#FFFFFF" stroke-width="0.7838" stroke-linecap="round" stroke-linejoin="round" d="M37.338,33.744"/>
		<path fill="none" stroke="#FFFFFF" stroke-width="0.7838" stroke-linecap="round" stroke-linejoin="round" d="M36.168,33.059"/>
		<path fill="none" stroke="#FFFFFF" stroke-width="0.7838" stroke-linecap="round" stroke-linejoin="round" d="M35.714,40.083"/>
		<path fill="none" stroke="#FFFFFF" stroke-width="0.7838" stroke-linecap="round" stroke-linejoin="round" d="M34.448,39.877"/>
		
			<linearGradient id="SVGID_6_" gradientUnits="userSpaceOnUse" x1="52.0664" y1="146.5195" x2="48.2852" y2="153.0688" gradientTransform="matrix(0.866 -0.5 0.5 0.866 -84.5645 -69.5283)">
			<stop  offset="0" style="stop-color:#B6D5ED"/>
			<stop  offset="0.0778" style="stop-color:#B1D2EB"/>
			<stop  offset="0.1747" style="stop-color:#A1C9E6"/>
			<stop  offset="0.2815" style="stop-color:#88BADE"/>
			<stop  offset="0.3202" style="stop-color:#7DB4DA"/>
			<stop  offset="0.4593" style="stop-color:#69AFD8"/>
			<stop  offset="0.7431" style="stop-color:#34A1D2"/>
			<stop  offset="1" style="stop-color:#0093CD"/>
		</linearGradient>
		<path fill="url(#SVGID_6_)" d="M37.976,34.799c0.098,0.168,0.098,0.445,0,0.613l-1.829,3.168
			c-0.098,0.169-0.337,0.307-0.532,0.307h-3.657c-0.195,0-0.435-0.138-0.532-0.307l-1.827-3.168c-0.098-0.168-0.098-0.445,0-0.613
			l1.827-3.168c0.098-0.169,0.337-0.307,0.532-0.307h3.657c0.195,0,0.435,0.138,0.532,0.307L37.976,34.799z"/>
		<path fill="none" stroke="#FFFFFF" stroke-width="0.7838" stroke-linecap="round" stroke-linejoin="round" d="M37.712,35.104"/>
		<path fill="none" stroke="#FFFFFF" stroke-width="0.7838" stroke-linecap="round" stroke-linejoin="round" d="M31.827,38.502"/>
		
			<line fill="none" stroke="#FFFFFF" stroke-width="0.7838" stroke-linecap="round" stroke-linejoin="round" x1="31.269" y1="32.674" x2="32.388" y2="32.677"/>
		
			<line fill="none" stroke="#FFFFFF" stroke-width="0.7838" stroke-linecap="round" stroke-linejoin="round" x1="32.388" y1="32.677" x2="32.932" y2="31.711"/>
		
			<line fill="none" stroke="#FFFFFF" stroke-width="0.7838" stroke-linecap="round" stroke-linejoin="round" x1="36.316" y1="37.49" x2="35.167" y2="37.493"/>
		
			<line fill="none" stroke="#FFFFFF" stroke-width="0.7838" stroke-linecap="round" stroke-linejoin="round" x1="35.167" y1="37.493" x2="34.571" y2="38.504"/>
		<path fill="none" stroke="#FFFFFF" stroke-width="0.7838" stroke-linecap="round" stroke-linejoin="round" d="M30.997,35.084"/>
		<path fill="none" stroke="#FFFFFF" stroke-width="0.7838" stroke-linecap="round" stroke-linejoin="round" d="M30.319,36.264"/>
		<path fill="none" stroke="#FFFFFF" stroke-width="0.7838" stroke-linecap="round" stroke-linejoin="round" d="M30.326,33.906"/>
		<path fill="none" stroke="#FFFFFF" stroke-width="0.7838" stroke-linecap="round" stroke-linejoin="round" d="M30.997,35.084"/>
		<path fill="none" stroke="#FFFFFF" stroke-width="0.7838" stroke-linecap="round" stroke-linejoin="round" d="M37.228,36.264"/>
		<path fill="none" stroke="#FFFFFF" stroke-width="0.7838" stroke-linecap="round" stroke-linejoin="round" d="M36.558,35.086"/>
		<path fill="none" stroke="#FFFFFF" stroke-width="0.7838" stroke-linecap="round" stroke-linejoin="round" d="M32.386,37.492"/>
		<path fill="none" stroke="#FFFFFF" stroke-width="0.7838" stroke-linecap="round" stroke-linejoin="round" d="M33.068,38.67"/>
		<path fill="none" stroke="#FFFFFF" stroke-width="0.7838" stroke-linecap="round" stroke-linejoin="round" d="M31.03,37.484"/>
		<path fill="none" stroke="#FFFFFF" stroke-width="0.7838" stroke-linecap="round" stroke-linejoin="round" d="M32.386,37.492"/>
		<path fill="none" stroke="#FFFFFF" stroke-width="0.7838" stroke-linecap="round" stroke-linejoin="round" d="M35.167,32.678"/>
		<path fill="none" stroke="#FFFFFF" stroke-width="0.7838" stroke-linecap="round" stroke-linejoin="round" d="M36.523,32.686"/>
		<path fill="none" stroke="#FFFFFF" stroke-width="0.7838" stroke-linecap="round" stroke-linejoin="round" d="M35.167,32.678"/>
		
			<line fill="none" stroke="#FFFFFF" stroke-width="0.7838" stroke-linecap="round" stroke-linejoin="round" x1="35.748" y1="38.498" x2="31.827" y2="31.706"/>
		
			<line fill="none" stroke="#FFFFFF" stroke-width="0.7838" stroke-linecap="round" stroke-linejoin="round" x1="30.414" y1="36.062" x2="30.976" y2="35.096"/>
		
			<line fill="none" stroke="#FFFFFF" stroke-width="0.7838" stroke-linecap="round" stroke-linejoin="round" x1="30.976" y1="35.096" x2="30.412" y2="34.141"/>
		
			<line fill="none" stroke="#FFFFFF" stroke-width="0.7838" stroke-linecap="round" stroke-linejoin="round" x1="37.109" y1="34.1" x2="36.536" y2="35.097"/>
		
			<line fill="none" stroke="#FFFFFF" stroke-width="0.7838" stroke-linecap="round" stroke-linejoin="round" x1="36.536" y1="35.097" x2="37.114" y2="36.117"/>
		
			<line fill="none" stroke="#FFFFFF" stroke-width="0.7838" stroke-linecap="round" stroke-linejoin="round" x1="37.697" y1="35.096" x2="29.855" y2="35.096"/>
		
			<line fill="none" stroke="#FFFFFF" stroke-width="0.7838" stroke-linecap="round" stroke-linejoin="round" x1="32.921" y1="38.498" x2="32.364" y2="37.527"/>
		
			<line fill="none" stroke="#FFFFFF" stroke-width="0.7838" stroke-linecap="round" stroke-linejoin="round" x1="32.364" y1="37.527" x2="31.256" y2="37.539"/>
		
			<line fill="none" stroke="#FFFFFF" stroke-width="0.7838" stroke-linecap="round" stroke-linejoin="round" x1="34.569" y1="31.718" x2="35.146" y2="32.712"/>
		
			<line fill="none" stroke="#FFFFFF" stroke-width="0.7838" stroke-linecap="round" stroke-linejoin="round" x1="35.146" y1="32.712" x2="36.319" y2="32.723"/>
		
			<line fill="none" stroke="#FFFFFF" stroke-width="0.7838" stroke-linecap="round" stroke-linejoin="round" x1="35.726" y1="31.706" x2="31.804" y2="38.498"/>
	</g>
</g>
</svg>
