<?xml version="1.0" encoding="iso-8859-1"?>
<!-- Generator: Adobe Illustrator 15.0.1, SVG Export Plug-In . SVG Version: 6.00 Build 0)  -->
<!DOCTYPE svg PUBLIC "-//W3C//DTD SVG 1.1 Basic//EN" "http://www.w3.org/Graphics/SVG/1.1/DTD/svg11-basic.dtd">
<svg version="1.1" baseProfile="basic" id="Layer_9"
	 xmlns="http://www.w3.org/2000/svg" xmlns:xlink="http://www.w3.org/1999/xlink" x="0px" y="0px" width="60px" height="60px"
	 viewBox="0 0 60 60" xml:space="preserve">
<g>
	<rect x="1.156" y="10.042" fill="none" width="56.69" height="40.677"/>
	<g>
		<linearGradient id="SVGID_1_" gradientUnits="userSpaceOnUse" x1="22.5308" y1="44.6094" x2="22.5308" y2="17.1729">
			<stop  offset="0" style="stop-color:#FFCB00"/>
			<stop  offset="0.1782" style="stop-color:#FDC000"/>
			<stop  offset="1" style="stop-color:#F29100"/>
		</linearGradient>
		<path fill="url(#SVGID_1_)" d="M23.778,36.445c0.667-0.146,1.292-0.406,1.851-0.758l5.717,5.787l1.768-1.768l-5.738-5.734
			c0.358-0.549,0.626-1.162,0.778-1.818l8.095-0.014v-2.5l-8.077,0.004c-0.146-0.668-0.412-1.293-0.77-1.851l0.064-0.072
			l5.646-5.648l-1.766-1.767c0,0-5.719,5.721-5.718,5.721l-0.052-0.022c-0.544-0.336-1.152-0.584-1.798-0.726l0.002-8.107h-2.498
			l-0.002,8.11c-0.695,0.152-1.326,0.432-1.838,0.754l-0.008-0.009l-5.72-5.721l-1.768,1.768l5.705,5.745
			c-0.374,0.588-0.643,1.247-0.781,1.953l-8.059-0.132v2.5h8.1c0.154,0.674,0.43,1.301,0.801,1.861l-5.766,5.705l1.768,1.768
			l5.756-5.77c0.548,0.342,1.159,0.596,1.812,0.738l-0.001,0.012v8.154h2.498L23.778,36.445z"/>
		<linearGradient id="SVGID_2_" gradientUnits="userSpaceOnUse" x1="24.4175" y1="44.626" x2="24.4175" y2="29.3481">
			<stop  offset="0" style="stop-color:#9194A4"/>
			<stop  offset="0.0505" style="stop-color:#8F94A5"/>
			<stop  offset="0.0687" style="stop-color:#8895AB"/>
			<stop  offset="0.0787" style="stop-color:#8095B1"/>
			<stop  offset="0.2385" style="stop-color:#9EACBE"/>
			<stop  offset="0.4128" style="stop-color:#B8BFC9"/>
			<stop  offset="0.5939" style="stop-color:#CACDD1"/>
			<stop  offset="0.7845" style="stop-color:#D4D5D5"/>
			<stop  offset="1" style="stop-color:#D8D8D7"/>
		</linearGradient>
		<path fill="url(#SVGID_2_)" d="M27.864,32.32c-0.607-4.511-12.444-4.011-11.206,2.348c-6.179-1.002-7.69,9.922-2.092,9.922
			c0,0,18.516,0.078,20.28,0.006C40.011,44.107,38.603,29.901,27.864,32.32L27.864,32.32z"/>
		<linearGradient id="SVGID_3_" gradientUnits="userSpaceOnUse" x1="22.5308" y1="44.6094" x2="22.5308" y2="17.1729">
			<stop  offset="0" style="stop-color:#FFCB00"/>
			<stop  offset="0.1782" style="stop-color:#FDC000"/>
			<stop  offset="1" style="stop-color:#F29100"/>
		</linearGradient>
		<path opacity="0.2" fill="url(#SVGID_3_)" d="M23.778,36.445c0.667-0.146,1.292-0.406,1.851-0.758l5.717,5.787l1.768-1.768
			l-5.738-5.734c0.358-0.549,0.626-1.162,0.778-1.818l8.095-0.014v-2.5l-8.077,0.004c-0.146-0.668-0.412-1.293-0.77-1.851
			l0.064-0.072l5.646-5.648l-1.766-1.767c0,0-5.719,5.721-5.718,5.721l-0.052-0.022c-0.544-0.336-1.152-0.584-1.798-0.726
			l0.002-8.107h-2.498l-0.002,8.11c-0.695,0.152-1.326,0.432-1.838,0.754l-0.008-0.009l-5.72-5.721l-1.768,1.768l5.705,5.745
			c-0.374,0.588-0.643,1.247-0.781,1.953l-8.059-0.132v2.5h8.1c0.154,0.674,0.43,1.301,0.801,1.861l-5.766,5.705l1.768,1.768
			l5.756-5.77c0.548,0.342,1.159,0.596,1.812,0.738l-0.001,0.012v8.154h2.498L23.778,36.445z"/>
		<linearGradient id="SVGID_4_" gradientUnits="userSpaceOnUse" x1="37.1035" y1="38.3662" x2="37.1035" y2="23.0874">
			<stop  offset="0" style="stop-color:#9194A4"/>
			<stop  offset="0.0505" style="stop-color:#8F94A5"/>
			<stop  offset="0.0687" style="stop-color:#8895AB"/>
			<stop  offset="0.0787" style="stop-color:#8095B1"/>
			<stop  offset="0.2385" style="stop-color:#9EACBE"/>
			<stop  offset="0.4128" style="stop-color:#B8BFC9"/>
			<stop  offset="0.5939" style="stop-color:#CACDD1"/>
			<stop  offset="0.7845" style="stop-color:#D4D5D5"/>
			<stop  offset="1" style="stop-color:#D8D8D7"/>
		</linearGradient>
		<path fill="url(#SVGID_4_)" d="M40.55,26.06c-0.605-4.512-12.445-4.012-11.205,2.347c-6.178-1.001-7.689,9.923-2.093,9.923
			c0,0,18.517,0.078,20.282,0.006C52.698,37.846,51.29,23.64,40.55,26.06L40.55,26.06z"/>
		<linearGradient id="SVGID_5_" gradientUnits="userSpaceOnUse" x1="36.374" y1="44.6982" x2="36.374" y2="37.0332">
			<stop  offset="0" style="stop-color:#B6D5ED"/>
			<stop  offset="0.0778" style="stop-color:#B1D2EB"/>
			<stop  offset="0.1747" style="stop-color:#A1C9E6"/>
			<stop  offset="0.2815" style="stop-color:#88BADE"/>
			<stop  offset="0.3202" style="stop-color:#7DB4DA"/>
			<stop  offset="0.4593" style="stop-color:#69AFD8"/>
			<stop  offset="0.7431" style="stop-color:#34A1D2"/>
			<stop  offset="1" style="stop-color:#0093CD"/>
		</linearGradient>
		<path fill="url(#SVGID_5_)" d="M38.882,37.111c0.082,2.584-0.039,5.117-0.027,5.033l-0.025,0.191
			c-0.238,1.473-1.674,2.436-3.12,2.357l-0.012-0.012c-1.025,0-1.794-0.711-1.855-1.588l0,0c-0.086-1.664,1.299-2.686,2.154-3.496
			l0.07-0.061c1.359-1.225,1.837-1.592,2.815-2.504V37.111z"/>
		<linearGradient id="SVGID_6_" gradientUnits="userSpaceOnUse" x1="42.5234" y1="44.6982" x2="42.5234" y2="37.0332">
			<stop  offset="0" style="stop-color:#B6D5ED"/>
			<stop  offset="0.0778" style="stop-color:#B1D2EB"/>
			<stop  offset="0.1747" style="stop-color:#A1C9E6"/>
			<stop  offset="0.2815" style="stop-color:#88BADE"/>
			<stop  offset="0.3202" style="stop-color:#7DB4DA"/>
			<stop  offset="0.4593" style="stop-color:#69AFD8"/>
			<stop  offset="0.7431" style="stop-color:#34A1D2"/>
			<stop  offset="1" style="stop-color:#0093CD"/>
		</linearGradient>
		<path fill="url(#SVGID_6_)" d="M45.03,37.111c0.082,2.584-0.039,5.117-0.027,5.033l-0.025,0.191
			c-0.237,1.473-1.673,2.436-3.121,2.357l-0.01-0.012c-1.025,0-1.795-0.711-1.855-1.588l0,0c-0.087-1.664,1.297-2.686,2.154-3.496
			l0.07-0.061c1.359-1.225,1.836-1.592,2.814-2.504V37.111z"/>
	</g>
</g>
</svg>
